# xmcd
#
# Track frame offsets:
#	150
#	15107
#	39119
#
# Disc length: 768 seconds
#
# Revision: 0
# Processed by: cddbd v1.5.2PL0 Copyright (c) Steve Scherf et al.
# Submitted via: audiograbber 1.83.01
#
DISCID=0d02fe03
DTITLE=Tamkin Band, Jay - Almost Sorted (Promo copy)
DYEAR=1900
DGENRE=Bluesrock
TTITLE0=Get In your Way
TTITLE1=Livin' And Learnin'
TTITLE2=Thief
EXTD=
EXTT0=
EXTT1=
EXTT2=
PLAYORDER=
